<?xml version="1.0" encoding="UTF-8"?>
<svg id="Layer_1" xmlns="http://www.w3.org/2000/svg" version="1.1" viewBox="0 0 291.78 30.02">
  <!-- Generator: Adobe Illustrator 29.3.1, SVG Export Plug-In . SVG Version: 2.1.0 Build 151)  -->
  <defs>
    <style>
      .st0 {
        fill: #008245;
      }

      .st1 {
        fill: #e82629;
      }
    </style>
  </defs>
  <polygon class="st1" points="30.9 0 30.9 6.86 8.91 6.86 8.91 12.37 29.83 12.37 29.83 19.09 8.91 19.09 8.91 29.13 0 29.13 0 0 30.9 0"/>
  <polygon class="st1" points="67.1 0 67.1 6.86 43.49 6.86 43.49 11.05 65.92 11.05 65.92 17.48 43.49 17.48 43.49 22.15 67.28 22.15 67.28 29.13 34.7 29.13 34.7 0 67.1 0"/>
  <path class="st0" d="M119.55,18.35c.04,1.4.04,2.31.07,2.75,0,2.23-.35,3.98-1.01,5.23-.74,1.4-2.2,2.41-4.35,2.94-2.13.52-5.87.75-11.19.75s-9.51-.08-11.92-.32c-2.34-.21-4.16-.63-5.32-1.21-1.1-.58-1.9-1.33-2.43-2.3-.52-.9-.83-2.17-.98-3.82-.17-1.32-.24-3.71-.24-7.17s.07-5.81.24-7.3c.1-1.48.33-2.67.76-3.49.8-1.83,2.41-3.05,4.88-3.58C90.58.26,95.59,0,103.11,0c3.78,0,6.55.08,8.26.26,1.72.18,3.08.49,4.1.96,1.3.61,2.21,1.54,2.81,2.79.52,1.22.78,3.01.82,5.42,0,.13,0,.61-.04,1.45h-8.91c-.06-.98-.13-1.58-.19-1.94-.06-.31-.21-.56-.46-.83-.37-.29-1.25-.47-2.61-.6-1.38-.12-3.46-.22-6.32-.22s-4.68.06-5.77.16c-1.06.14-1.8.36-2.24.71-.55.43-.94,1.14-1.12,2.18-.2,1.01-.28,2.58-.37,4.81,0,2.18.12,3.74.33,4.68.19.87.49,1.52,1.05,1.92.5.39,1.29.64,2.36.78,1.12.13,3.05.18,5.85.13,3.4,0,5.67-.05,6.8-.13,1.15-.08,1.89-.31,2.33-.73.49-.49.79-1.62.85-3.45h8.91Z"/>
  <path class="st0" d="M123.56,0h21.57c5.03,0,8.07.04,9.07.22.98.08,1.93.39,2.9.96,1.08.66,1.83,1.57,2.29,2.76.37,1.17.55,3.02.6,5.54,0,2.09-.14,3.68-.39,4.69-.27.95-.74,1.74-1.49,2.35-.79.66-1.93,1.11-3.56,1.35,1.84.13,3.24.61,4.03,1.57.5.54.75,1.23.89,2.06.12.74.21,2.4.21,4.93v2.7h-8.83v-1.57c0-1.6-.03-2.75-.17-3.46-.07-.65-.32-1.21-.65-1.56-.31-.35-.8-.57-1.37-.66-.6-.08-1.75-.12-3.65-.12h-12.54v7.38h-8.92V0ZM145.03,14.46c2.16,0,3.49-.04,3.91-.08.39-.05.79-.18,1.05-.35.38-.27.65-.58.84-1.11.13-.44.21-1.18.21-2.13s-.08-1.67-.25-2.13c-.16-.49-.5-.85-.93-1.06-.29-.14-.65-.2-1.14-.26-.44,0-1.67-.04-3.72-.04h-12.51v7.16h12.54Z"/>
  <polygon class="st0" points="196.33 0 196.33 6.86 172.74 6.86 172.74 11.05 195.16 11.05 195.16 17.48 172.74 17.48 172.74 22.15 196.5 22.15 196.5 29.13 163.96 29.13 163.96 0 196.33 0"/>
  <path class="st0" d="M200.2,0h21.11c3.72,0,6.14.04,7.32.08,1.2.06,2.36.23,3.65.5,2.87.6,4.82,2.23,5.7,4.93.34,1.04.52,2.13.67,3.31.11,1.17.16,2.93.16,5.34,0,2.57-.05,4.52-.26,5.89-.13,1.33-.34,2.53-.7,3.59-.86,2.56-2.62,4.18-5.35,4.79-1.27.26-2.63.48-4.09.57-1.44.09-3.76.14-7.09.14h-21.11V0ZM221.39,21.71c2.28,0,3.94-.05,5.06-.22,1.05-.12,1.79-.39,2.26-.78.49-.4.8-1.05,1.02-1.97.21-.88.3-2.23.3-4.07s-.09-3.11-.25-4.07c-.19-.86-.5-1.56-.89-2.09-.49-.47-1.18-.83-2.15-.99-.87-.12-2.71-.22-5.43-.22h-12.34v14.41h12.42Z"/>
  <rect class="st0" x="242.32" y="0" width="9.34" height="29.13"/>
  <polygon class="st0" points="291.78 0 291.78 7.43 278.75 7.43 278.75 29.13 269.41 29.13 269.41 7.43 256.35 7.43 256.35 0 291.78 0"/>
</svg>